<?xml version="1.0" standalone="no"?>
<!DOCTYPE svg PUBLIC "-//W3C//DTD SVG 20010904//EN"
 "http://www.w3.org/TR/2001/REC-SVG-20010904/DTD/svg10.dtd">
<svg version="1.0" xmlns="http://www.w3.org/2000/svg"
 width="3403.000000pt" height="3529.000000pt" viewBox="0 0 3403.000000 3529.000000"
 preserveAspectRatio="xMidYMid meet">

<g transform="translate(0.000000,3529.000000) scale(0.100000,-0.100000)"
fill="#000000" stroke="none">
<path d="M5595 33724 c-227 -32 -287 -46 -392 -94 -148 -69 -246 -146 -334
-263 -74 -99 -113 -182 -173 -365 -66 -204 -90 -340 -83 -480 6 -106 4 -122
-32 -280 -40 -171 -56 -252 -90 -452 -64 -373 -50 -815 32 -977 37 -72 80
-103 111 -80 19 15 53 157 100 427 75 422 154 765 213 926 22 57 12 54 267 83
336 39 578 46 1113 33 268 -7 567 -17 663 -23 181 -10 415 -34 443 -45 16 -6
64 -119 138 -326 34 -95 37 -108 21 -109 -14 0 -14 -2 3 -9 13 -6 15 -9 5 -9
-13 -1 -13 -2 0 -11 13 -9 13 -10 0 -10 -13 0 -13 -1 0 -10 12 -8 12 -10 -5
-10 -20 -1 -20 -1 0 -16 17 -12 18 -17 7 -35 -10 -16 -10 -24 -1 -35 9 -11 8
-14 -2 -14 -11 0 -11 -2 1 -10 8 -5 10 -10 3 -10 -6 0 -10 -15 -10 -39 1 -21
5 -37 8 -35 4 2 10 -3 13 -12 9 -23 8 -24 -11 -17 -14 5 -16 4 -7 -8 14 -19
19 -149 5 -149 -7 0 -7 -7 1 -20 11 -17 10 -22 -2 -30 -9 -6 -10 -10 -3 -10 7
0 10 -7 7 -15 -3 -8 -2 -20 2 -27 15 -23 14 -57 -2 -51 -8 3 -14 0 -14 -6 0
-6 8 -11 18 -12 14 0 14 -2 -3 -9 -11 -5 -14 -9 -7 -9 7 -1 11 -5 7 -10 -3 -5
-1 -12 5 -16 17 -10 11 -25 -7 -18 -16 6 -16 5 1 -12 17 -17 17 -19 1 -31 -15
-11 -15 -13 2 -17 16 -4 16 -5 1 -6 -18 -1 -26 -21 -8 -21 6 0 6 -9 0 -26 -8
-21 -7 -25 3 -21 8 3 14 -4 15 -22 1 -18 -1 -22 -7 -12 -5 8 -11 9 -15 3 -3
-5 0 -15 8 -21 8 -7 12 -25 9 -49 -2 -27 -1 -33 7 -22 14 22 12 4 -5 -36 -8
-20 -12 -40 -9 -45 3 -5 10 -23 14 -40 8 -25 6 -30 -6 -25 -12 5 -13 2 -2 -17
14 -26 16 -63 6 -95 -5 -15 -4 -21 2 -17 6 3 10 -3 10 -14 0 -10 6 -22 13 -24
7 -4 6 -6 -4 -6 -20 -1 -34 -31 -16 -32 7 0 2 -4 -10 -9 -13 -5 -23 -14 -23
-20 0 -14 17 -13 24 3 3 6 3 0 0 -14 -3 -15 -1 -30 4 -33 16 -10 2 -45 -15
-39 -12 5 -12 0 3 -23 13 -19 14 -25 5 -19 -11 6 -13 4 -8 -10 4 -9 2 -24 -5
-32 -16 -20 -19 -45 -7 -59 7 -9 3 -19 -13 -35 -13 -12 -17 -19 -10 -15 7 5
12 1 12 -9 0 -9 -4 -14 -9 -10 -6 3 -15 -4 -21 -16 -9 -15 -9 -19 -1 -15 23
14 24 -25 1 -41 -15 -11 -20 -23 -17 -39 2 -14 -2 -25 -11 -29 -11 -4 -12 -8
-2 -20 10 -12 9 -15 -5 -15 -14 0 -15 -3 -5 -15 12 -14 5 -55 -9 -55 -5 0 -8
-17 -8 -37 0 -21 -4 -37 -9 -36 -5 1 -10 -12 -10 -29 -1 -17 -9 -35 -18 -40
-9 -5 -16 -22 -16 -38 0 -15 -5 -30 -10 -32 -6 -2 -13 -21 -17 -43 -3 -22 -12
-44 -20 -50 -7 -5 -14 -22 -15 -37 -1 -16 -7 -28 -13 -28 -5 0 -3 -5 5 -10 11
-7 11 -10 2 -10 -7 0 -10 -4 -7 -10 3 -5 -4 -23 -16 -39 -12 -16 -19 -37 -16
-45 4 -9 2 -16 -3 -16 -5 0 -12 -16 -16 -35 -3 -19 -11 -35 -16 -35 -6 0 -8
-7 -4 -15 3 -8 1 -15 -5 -15 -6 0 -9 -6 -6 -12 2 -7 -7 -35 -20 -63 -50 -101
-65 -128 -81 -138 -7 -5 -10 -12 -8 -16 8 -12 -123 -133 -204 -189 -41 -28
-93 -65 -115 -80 -22 -16 -71 -46 -110 -67 -89 -48 -103 -60 -67 -59 15 1 35
5 45 9 12 5 24 2 35 -10 9 -10 11 -15 5 -11 -8 4 -13 1 -13 -8 0 -19 28 -36
60 -36 6 0 10 -6 10 -14 0 -8 7 -17 16 -20 9 -4 13 -2 8 5 -4 7 -1 10 7 7 8
-3 13 -12 13 -21 -1 -9 3 -14 8 -11 5 3 12 -3 15 -15 3 -12 9 -21 14 -21 5 0
9 -7 9 -15 0 -13 25 -21 53 -16 4 0 7 -4 7 -9 0 -6 9 -10 20 -10 22 0 40 -28
32 -49 -3 -8 0 -11 7 -7 6 4 11 4 12 -1 3 -32 11 -58 21 -64 6 -4 8 -11 4 -17
-3 -6 -2 -13 2 -16 8 -5 10 -20 15 -103 1 -18 4 -33 7 -33 3 0 4 -28 4 -62 -1
-35 3 -68 8 -75 5 -7 7 -17 3 -23 -3 -5 -2 -10 4 -10 5 0 8 -9 6 -20 -2 -11 1
-20 6 -20 6 0 7 -4 4 -10 -8 -13 54 -50 72 -43 9 4 16 -2 20 -16 3 -11 12 -21
20 -21 10 0 13 -6 9 -16 -3 -8 -2 -13 2 -11 9 5 42 -29 35 -36 -2 -3 4 -10 15
-16 12 -6 28 -34 38 -68 25 -78 28 -47 10 80 -29 195 -16 489 30 669 22 88 72
198 166 368 142 256 179 350 338 848 60 188 88 233 168 273 57 28 82 47 42 31
-49 -20 -120 -34 -136 -28 -15 6 -16 19 -9 119 12 166 13 417 3 417 -5 0 -7 4
-4 8 5 8 -8 147 -18 190 -4 16 0 22 13 22 24 0 56 36 81 93 17 38 24 46 35 37
17 -14 23 20 33 190 15 259 7 520 -22 730 -50 359 -107 628 -167 791 -110 301
-320 553 -560 675 -36 18 -124 71 -195 117 -145 95 -290 170 -437 228 -267
104 -595 167 -907 174 -96 2 -188 2 -205 -1z m2015 -3514 c0 -5 -5 -10 -11
-10 -5 0 -7 5 -4 10 3 6 8 10 11 10 2 0 4 -4 4 -10z"/>
<path d="M5205 31236 c-64 -20 -117 -51 -157 -92 -65 -64 -53 -73 75 -53 54 9
108 9 212 0 167 -14 199 -8 203 36 3 25 -4 37 -37 65 -23 19 -58 40 -80 46
-50 15 -165 14 -216 -2z"/>
<path d="M6577 31223 c-70 -26 -117 -68 -117 -102 0 -47 34 -54 212 -46 121 6
172 4 247 -9 108 -19 127 -13 95 31 -78 106 -310 173 -437 126z"/>
<path d="M6668 30865 c-47 -26 -62 -68 -66 -188 -5 -137 3 -189 34 -227 21
-25 33 -30 69 -30 80 0 109 63 107 231 0 47 -5 104 -12 127 -21 79 -78 116
-132 87z"/>
<path d="M5260 30848 c-33 -35 -42 -92 -38 -229 3 -111 6 -131 24 -156 42 -55
106 -56 145 -1 20 28 24 47 27 148 5 133 -13 218 -50 245 -33 22 -83 19 -108
-7z"/>
<path d="M8392 30360 c0 -14 2 -19 5 -12 2 6 2 18 0 25 -3 6 -5 1 -5 -13z"/>
<path d="M8381 30314 c0 -11 3 -14 6 -6 3 7 2 16 -1 19 -3 4 -6 -2 -5 -13z"/>
<path d="M8354 30236 c-8 -33 -76 -140 -118 -185 l-31 -35 36 30 c54 44 142
194 125 212 -3 2 -8 -8 -12 -22z"/>
<path d="M6244 30169 c-20 -40 -93 -119 -119 -130 -16 -6 -14 -8 13 -8 40 -1
102 30 120 58 7 12 15 42 19 66 7 54 -9 60 -33 14z"/>
<path d="M5739 29576 c-35 -77 129 -206 261 -206 87 0 187 51 234 119 30 42
33 73 10 95 -25 26 -52 19 -102 -28 -62 -57 -81 -66 -143 -66 -61 0 -121 30
-157 79 -30 41 -86 44 -103 7z"/>
<path d="M5115 27310 c3 -5 11 -10 16 -10 6 0 7 5 4 10 -3 6 -11 10 -16 10 -6
0 -7 -4 -4 -10z"/>
<path d="M9811 23200 c-32 -16 -33 -18 -15 -28 18 -11 18 -11 0 -12 -16 0 -17
-5 -11 -32 3 -18 7 -37 9 -43 1 -5 5 -15 9 -22 4 -6 1 -14 -5 -16 -10 -4 -10
-6 0 -6 10 -1 10 -6 2 -21 -8 -15 -8 -20 2 -20 9 0 9 -3 0 -12 -9 -9 -8 -16 4
-29 16 -18 17 -23 29 -124 4 -33 9 -67 12 -75 3 -8 5 -27 4 -42 -1 -14 3 -29
9 -33 8 -5 7 -11 -2 -23 -10 -12 -10 -14 -1 -8 9 5 13 0 13 -16 1 -66 10 -149
18 -165 5 -10 7 -23 5 -30 -2 -7 0 -21 6 -31 6 -11 11 -49 12 -86 1 -36 6 -66
11 -66 5 0 7 -4 4 -9 -4 -5 -2 -20 3 -33 5 -15 5 -31 0 -41 -7 -12 -6 -17 2
-17 7 0 9 -3 6 -7 -4 -3 -1 -13 6 -21 9 -13 9 -14 0 -8 -7 4 -13 3 -13 -3 0
-5 4 -11 9 -13 5 -1 11 -32 14 -68 3 -36 8 -72 11 -80 3 -8 8 -37 10 -65 3
-27 8 -68 12 -90 6 -45 12 -98 13 -133 1 -14 5 -21 12 -16 8 5 8 1 0 -14 -6
-11 -7 -22 -2 -24 5 -2 11 -28 14 -58 13 -121 29 -237 42 -300 3 -14 7 -36 10
-50 2 -14 6 -38 8 -55 3 -16 8 -57 12 -91 4 -33 11 -67 16 -75 16 -25 10 52
-15 213 -14 84 -28 182 -31 218 -4 36 -20 151 -36 255 -16 105 -33 229 -38
275 -5 47 -20 166 -34 265 -63 444 -88 637 -97 735 -5 58 -13 125 -16 149 -5
33 -4 42 5 36 19 -11 51 25 51 57 0 24 -4 28 -27 27 -16 -1 -43 -9 -62 -19z"/>
<path d="M3203 21269 c-18 -10 -33 -15 -34 -11 0 4 -4 -3 -9 -15 -8 -20 -27
-27 -66 -22 -3 0 -11 -6 -17 -14 -7 -8 -24 -17 -39 -21 -16 -4 -28 -10 -28
-15 0 -4 -12 -6 -26 -3 -15 3 -24 1 -21 -4 3 -5 -16 -18 -41 -29 -26 -10 -53
-25 -61 -33 -7 -7 -20 -11 -28 -8 -7 3 -16 -1 -19 -9 -4 -8 -14 -15 -23 -15
-9 0 -27 -7 -39 -16 -12 -8 -22 -12 -22 -8 0 3 -6 1 -13 -5 -8 -6 -17 -8 -20
-4 -4 3 -7 1 -7 -6 0 -7 -4 -10 -9 -7 -17 11 -32 -20 -22 -47 7 -18 4 -90 -9
-234 -11 -114 -22 -239 -25 -276 l-6 -68 38 7 c44 8 164 49 208 72 152 77 344
242 453 390 65 88 66 91 55 192 l-6 64 -14 -47 c-9 -30 -18 -44 -26 -41 -17 6
-63 126 -71 184 -9 65 -15 70 -53 49z"/>
<path d="M2630 21217 c-3 -3 -51 -15 -106 -26 -112 -23 -336 -46 -552 -57
l-144 -7 -34 -35 c-19 -19 -34 -41 -34 -47 0 -7 -7 -16 -16 -19 -8 -3 -12 -11
-9 -16 4 -6 3 -16 -2 -23 -6 -7 -11 -34 -12 -62 -2 -27 -5 -53 -7 -57 -9 -14
366 -8 510 7 156 16 229 28 329 51 62 15 67 18 67 43 0 15 5 32 10 37 7 7 10
52 8 113 -2 57 -5 100 -8 98z"/>
<path d="M890 20981 c-25 -10 -63 -24 -85 -31 -22 -8 -47 -19 -55 -26 -8 -6
-25 -15 -37 -18 -13 -4 -23 -15 -23 -25 0 -19 -57 -111 -69 -111 -4 0 -19 -18
-34 -41 -22 -33 -23 -39 -9 -35 44 12 262 56 305 61 l48 6 -2 108 c-2 59 1
112 5 119 4 7 6 12 4 11 -2 0 -23 -9 -48 -18z"/>
<path d="M10117 20963 c-2 -5 -1 -19 4 -33 7 -23 7 -23 8 8 1 31 -3 40 -12 25z"/>
<path d="M10174 20672 c5 -9 10 -142 6 -152 -1 -3 -4 -31 -5 -63 -2 -32 -9
-65 -16 -73 -7 -8 -14 -41 -15 -72 -2 -31 -6 -102 -9 -157 -3 -55 -7 -127 -9
-161 -2 -33 -6 -69 -9 -80 -4 -10 -9 -46 -12 -79 -7 -61 -30 -251 -40 -315 -3
-19 -7 -57 -10 -85 -3 -27 -14 -122 -25 -210 -11 -88 -27 -221 -36 -295 -9
-74 -17 -146 -19 -160 -2 -14 -7 -54 -10 -89 -3 -35 -7 -74 -10 -85 -4 -19 -9
-62 -21 -191 -2 -27 -7 -61 -9 -75 -3 -14 -8 -56 -11 -95 -3 -38 -11 -122 -19
-185 -8 -63 -17 -142 -19 -175 -3 -33 -9 -89 -15 -125 -5 -36 -12 -94 -15
-130 -4 -36 -11 -103 -16 -150 -5 -47 -12 -110 -15 -140 -3 -30 -7 -68 -9 -85
-2 -16 -7 -61 -10 -100 -4 -38 -9 -88 -11 -110 -11 -99 -17 -144 -24 -205 -5
-36 -9 -72 -10 -80 -1 -33 -11 -119 -21 -185 -5 -38 -12 -86 -14 -105 -2 -19
-13 -78 -24 -130 -11 -52 -25 -130 -32 -174 -6 -43 -18 -96 -26 -118 -7 -21
-15 -51 -18 -66 -2 -15 -5 -27 -6 -27 -2 0 -4 -9 -6 -20 -2 -17 -30 -121 -64
-240 -5 -16 -14 -48 -20 -70 -6 -22 -12 -47 -15 -55 -2 -8 -11 -42 -20 -75 -8
-33 -19 -69 -24 -80 -19 -40 -32 -95 -26 -105 3 -5 2 -10 -3 -10 -5 0 -12 -12
-15 -27 -8 -46 -15 -72 -22 -83 -4 -6 -9 -23 -11 -38 -3 -15 -14 -54 -25 -86
-18 -55 -39 -154 -42 -201 -1 -11 -7 -24 -14 -30 -6 -5 -13 -26 -14 -45 -2
-19 -5 -39 -8 -45 -3 -5 -6 -17 -6 -25 -4 -44 -6 -51 -12 -47 -5 3 -9 -11 -11
-32 -3 -46 -6 -63 -13 -76 -4 -5 -5 -18 -4 -27 2 -10 0 -18 -5 -18 -4 0 -7
-18 -5 -41 3 -33 1 -39 -12 -35 -13 5 -14 4 -4 -8 9 -11 9 -16 1 -21 -8 -5 -9
-20 -5 -42 4 -21 3 -33 -3 -29 -5 3 -12 -5 -14 -19 -3 -13 -1 -22 3 -19 11 7
11 3 -1 -76 -18 -109 -71 -228 -142 -315 -4 -5 -38 -50 -74 -100 -87 -119 -99
-131 -168 -176 -77 -50 -64 -49 37 3 97 50 193 140 285 268 98 136 100 138
113 117 5 -9 14 -15 20 -12 10 7 12 -8 2 -19 -4 -3 -8 -14 -9 -24 -3 -17 -26
-90 -46 -144 -6 -15 -32 -48 -59 -73 -65 -61 -48 -57 34 9 65 52 116 105 168
176 167 227 160 201 229 815 65 579 80 711 100 910 11 105 38 316 60 470 22
154 80 613 130 1020 49 407 101 832 115 945 66 543 129 1028 175 1365 77 556
89 768 55 1015 -9 63 -18 136 -22 163 -3 26 -10 47 -15 47 -5 0 -7 -4 -4 -8z"/>
<path d="M1500 20375 c-9 -33 -28 -65 -58 -97 -51 -54 -48 -59 14 -23 48 28
69 73 62 135 l-4 35 -14 -50z"/>
<path d="M1552 19883 c-7 -48 -49 -126 -96 -176 -53 -57 -50 -64 16 -31 56 29
93 108 85 182 -2 20 -4 32 -5 25z"/>
<path d="M870 19620 c0 -13 11 -13 30 0 12 8 11 10 -7 10 -13 0 -23 -4 -23
-10z"/>
<path d="M2469 19452 c-90 -45 -267 -70 -620 -87 l-126 -7 2 -99 c3 -148 1
-154 -54 -180 -39 -19 -68 -23 -196 -26 -107 -3 -171 0 -225 10 -41 8 -77 13
-79 12 -10 -10 148 -46 249 -57 149 -16 582 -16 730 1 119 13 241 41 291 66
46 24 57 59 69 223 7 83 10 155 9 159 -2 4 -25 -2 -50 -15z"/>
<path d="M1482 19331 c-7 -22 -36 -67 -64 -101 l-51 -62 39 16 c51 21 90 68
98 117 9 59 -7 81 -22 30z"/>
<path d="M4437 18127 c-2 -6 -5 -16 -5 -21 0 -5 -6 -13 -14 -18 -10 -8 -10 -9
2 -5 8 2 14 10 12 16 -1 7 2 10 8 6 6 -4 8 -15 5 -24 -7 -22 4 -53 16 -45 5 3
9 0 9 -5 0 -15 -6 -14 -34 4 -20 13 -23 13 -23 0 0 -8 6 -15 14 -15 7 0 13 -5
13 -11 0 -6 -7 -9 -15 -6 -8 4 -17 2 -20 -3 -4 -6 5 -14 19 -20 32 -12 34 -20
4 -14 -13 2 -17 2 -10 -2 6 -3 12 -13 11 -22 0 -11 -2 -12 -6 -4 -5 14 -23 6
-23 -10 0 -6 3 -8 6 -5 9 9 46 -12 40 -22 -3 -5 -17 -7 -30 -6 -23 3 -24 1
-14 -21 8 -16 17 -23 27 -19 11 3 9 0 -3 -10 -15 -11 -22 -12 -27 -3 -4 6 -5
-15 -2 -48 12 -121 10 -149 -9 -146 -10 2 -18 -2 -18 -8 0 -5 6 -10 13 -10 8
0 12 -14 12 -41 0 -22 -1 -36 -3 -30 -2 6 -11 11 -19 11 -13 0 -12 -3 4 -17
11 -10 22 -28 25 -39 4 -18 2 -21 -16 -18 -11 2 -16 2 -9 -2 7 -3 10 -11 7
-19 -3 -7 0 -16 6 -20 8 -5 5 -11 -7 -20 -17 -13 -17 -14 2 -30 11 -9 16 -14
10 -12 -5 2 -19 1 -30 -4 -18 -7 -18 -8 -2 -8 10 -1 15 -5 12 -11 -3 -5 -1
-10 6 -10 7 0 4 -7 -7 -15 -10 -8 -14 -15 -9 -15 16 0 13 -90 -3 -90 -10 0
-10 -5 -2 -21 7 -11 8 -28 4 -37 -10 -24 -11 -36 -1 -43 4 -3 3 -18 -2 -32 -9
-23 -8 -27 6 -27 13 0 14 -3 5 -12 -16 -16 -15 -60 1 -77 10 -11 9 -13 -5 -8
-12 4 -18 1 -19 -8 -1 -8 -2 -21 -3 -27 -1 -7 3 -16 9 -20 6 -5 5 -8 -3 -8 -7
0 -10 -4 -7 -10 3 -5 1 -10 -4 -10 -15 0 -14 -27 0 -32 14 -5 -5 -45 -30 -66
-14 -12 -14 -13 2 -8 9 3 17 1 17 -4 0 -6 -7 -10 -15 -10 -8 0 -15 -4 -15 -9
0 -6 10 -8 23 -6 20 4 19 2 -8 -21 -26 -22 -27 -25 -7 -19 16 5 22 2 22 -10 0
-12 -6 -16 -20 -12 -18 5 -19 3 -5 -28 12 -30 12 -34 -3 -38 -15 -4 -15 -5 1
-6 18 -1 25 -21 7 -21 -5 0 -10 -7 -10 -15 0 -8 5 -15 12 -15 6 0 4 -6 -6 -13
-18 -13 -18 -14 -2 -20 10 -4 23 -4 28 0 7 4 8 1 4 -6 -14 -22 -18 -71 -6 -71
6 0 8 -4 5 -10 -3 -5 -1 -10 5 -10 6 0 9 -4 5 -10 -3 -5 -13 -7 -23 -4 -16 5
-16 5 0 -9 10 -8 15 -17 11 -20 -3 -4 0 -7 8 -7 8 -1 3 -7 -11 -16 -23 -14
-24 -14 -2 -9 23 7 28 -12 7 -27 -7 -5 -7 -11 0 -15 6 -5 11 -19 11 -33 0 -14
4 -33 8 -43 7 -14 5 -16 -9 -11 -13 5 -16 3 -13 -7 3 -8 11 -13 17 -11 14 3
14 -4 0 -29 -7 -15 -7 -24 2 -35 9 -11 9 -14 -1 -14 -10 0 -10 -3 0 -15 6 -8
9 -18 6 -24 -4 -5 2 -12 11 -14 17 -4 17 -5 1 -6 -12 -1 -18 -9 -18 -27 0 -14
4 -22 10 -19 6 4 7 -5 4 -23 -4 -18 -1 -32 5 -37 9 -5 9 -10 0 -21 -6 -8 -9
-14 -6 -14 3 0 2 -13 -3 -29 -7 -25 -6 -29 7 -24 13 5 14 3 5 -13 -9 -15 -6
-28 14 -61 14 -24 20 -43 14 -43 -5 0 -10 6 -10 13 0 8 -3 7 -10 -3 -5 -8 -5
-17 -1 -20 15 -9 18 -35 8 -55 -14 -27 -18 -65 -7 -65 5 0 15 -10 21 -22 11
-20 11 -22 -3 -10 -11 9 -18 10 -23 2 -3 -5 -1 -10 5 -10 7 0 9 -7 6 -16 -4
-10 -2 -13 6 -8 7 5 9 -1 6 -20 -4 -18 -1 -26 9 -26 11 0 11 -4 3 -21 -8 -14
-8 -24 -1 -33 14 -16 -5 -36 -28 -29 -13 4 -14 3 -1 -5 8 -6 18 -8 22 -6 4 3
8 1 8 -5 0 -5 -6 -11 -12 -14 -10 -4 -10 -7 0 -18 10 -11 12 -11 12 1 0 7 3
10 6 7 4 -4 1 -13 -6 -22 -7 -8 -8 -15 -2 -15 19 0 19 -47 0 -59 -24 -15 -20
-52 8 -66 19 -10 20 -11 3 -28 -13 -14 -18 -15 -21 -5 -3 7 -4 -4 -4 -24 1
-38 16 -55 16 -19 0 11 5 23 12 27 7 4 8 3 4 -4 -4 -7 -2 -12 3 -12 19 0 12
-32 -8 -37 -12 -3 -17 -11 -14 -23 3 -12 11 -17 21 -12 15 5 15 4 3 -11 -11
-14 -11 -17 0 -17 11 0 12 -2 1 -9 -9 -5 -11 -17 -6 -34 5 -21 2 -27 -10 -27
-9 0 -16 -5 -16 -11 0 -6 7 -9 14 -6 10 4 13 1 9 -9 -3 -8 1 -14 11 -14 9 0
16 -4 16 -8 0 -5 -10 -8 -21 -8 -12 1 -24 -6 -27 -14 -5 -13 -3 -13 13 0 15
12 17 12 10 1 -13 -22 -15 -79 -2 -78 30 1 47 -4 47 -13 0 -5 -7 -7 -15 -4 -8
4 -15 2 -15 -3 0 -5 -10 -20 -22 -33 l-22 -23 30 7 29 6 -22 -19 c-28 -23 -29
-31 -4 -24 11 3 21 -2 25 -13 5 -13 4 -14 -7 -6 -8 7 -18 7 -27 2 -13 -8 -12
-10 3 -10 9 0 17 -5 17 -11 0 -6 -7 -9 -15 -6 -8 4 -17 2 -20 -3 -4 -6 5 -14
19 -20 32 -12 34 -20 4 -12 -22 5 -22 5 -5 -12 9 -10 17 -24 17 -32 0 -8 8
-14 18 -15 14 0 14 -2 -3 -8 -11 -5 -27 -6 -35 -4 -8 2 -5 -2 7 -9 15 -9 19
-18 14 -27 -5 -8 -7 -25 -5 -38 2 -12 0 -23 -6 -23 -18 0 -11 -20 8 -21 10 0
12 -3 5 -6 -7 -2 -13 -11 -13 -19 0 -8 -4 -14 -9 -14 -14 0 -1 -43 18 -59 11
-9 12 -15 4 -18 -9 -3 -9 -10 -1 -28 8 -17 7 -30 -4 -53 -13 -24 -13 -32 -1
-47 14 -20 18 -59 6 -52 -5 3 -8 -14 -7 -36 1 -25 6 -41 12 -40 8 2 9 -5 2
-23 -8 -20 -7 -25 3 -21 8 3 13 -3 13 -14 0 -11 -4 -19 -8 -19 -4 0 -8 5 -8
12 0 6 -3 9 -6 5 -3 -3 1 -16 10 -29 20 -28 20 -39 2 -32 -7 3 -16 -1 -19 -10
-3 -8 1 -17 9 -20 10 -4 13 -2 8 7 -4 6 -3 8 1 4 12 -10 15 -38 4 -31 -8 5
-11 -3 -8 -22 0 -4 -5 -11 -13 -16 -9 -7 -7 -8 7 -4 17 5 21 1 22 -22 1 -23 1
-24 -7 -7 -6 15 -9 16 -9 4 -1 -9 2 -19 6 -23 4 -3 8 -12 9 -19 1 -7 3 -16 4
-22 5 -20 0 -36 -9 -31 -5 3 -11 -4 -15 -17 -9 -33 -6 -45 4 -20 6 15 15 21
25 16 13 -5 14 -7 3 -14 -11 -7 -10 -11 2 -19 8 -5 10 -10 4 -10 -6 0 -16 -11
-22 -25 -8 -18 -8 -24 0 -22 15 3 17 -54 2 -60 -7 -3 -10 -11 -7 -19 4 -10 9
-11 18 -4 6 5 15 7 18 3 12 -12 7 -23 -10 -23 -14 0 -15 -2 -4 -9 11 -7 11 -9
0 -13 -12 -4 -11 -8 1 -23 14 -17 13 -18 -2 -12 -12 4 -15 2 -11 -8 3 -8 9
-13 13 -10 5 3 5 -8 0 -25 -5 -17 -5 -32 1 -35 13 -9 11 -43 -2 -47 -9 -3 -8
-10 1 -28 10 -18 10 -25 1 -28 -8 -3 -6 -8 5 -16 11 -8 14 -18 9 -26 -7 -11
-10 -9 -16 6 -7 17 -8 17 -8 -3 -1 -13 8 -28 19 -35 22 -14 26 -38 8 -56 -9
-9 -9 -18 1 -38 10 -24 10 -26 -3 -15 -17 14 -29 1 -16 -18 4 -8 13 -10 19 -6
8 5 10 -1 5 -21 -5 -21 -4 -25 6 -19 9 5 11 4 6 -4 -6 -9 -11 -9 -22 0 -8 6
-17 9 -21 5 -3 -3 -1 -6 5 -6 7 0 12 -3 11 -7 -1 -5 2 -19 6 -31 6 -18 10 -20
16 -10 7 10 9 9 9 -4 0 -10 -4 -18 -10 -18 -16 0 -11 -28 7 -38 14 -9 14 -10
-5 -16 -23 -8 -28 -21 -13 -30 5 -4 12 0 14 6 3 8 6 5 6 -5 1 -10 -5 -25 -13
-33 -9 -8 -12 -24 -9 -37 3 -12 5 -32 5 -44 0 -13 4 -23 10 -23 5 0 6 6 2 13
-6 9 -4 9 6 0 12 -11 11 -15 -5 -26 -10 -8 -15 -19 -11 -26 6 -9 11 -9 24 1
13 11 14 10 5 -7 -6 -11 -8 -26 -6 -33 3 -7 -1 -20 -9 -29 -7 -9 -8 -14 -2
-10 7 4 15 0 18 -9 4 -12 1 -14 -14 -9 -27 9 -25 -9 3 -24 12 -6 14 -9 5 -7
-22 7 -25 -32 -4 -40 8 -3 12 -13 8 -27 -5 -20 -6 -20 -13 -1 -6 14 -8 11 -8
-16 -1 -20 4 -41 11 -48 7 -7 8 -12 4 -12 -5 0 2 -9 15 -19 l24 -20 -22 6
c-20 5 -23 2 -21 -23 1 -16 6 -35 11 -41 6 -9 6 -13 -2 -13 -6 0 -11 -5 -11
-11 0 -5 5 -7 10 -4 6 3 10 1 10 -4 0 -6 -4 -11 -9 -11 -4 0 -6 -12 -4 -27 4
-22 2 -25 -6 -13 -9 12 -11 11 -11 -8 0 -19 4 -22 21 -17 14 5 19 3 15 -3 -3
-6 0 -13 6 -16 7 -3 2 -3 -12 0 -22 5 -23 4 -9 -7 23 -20 34 -53 15 -46 -11 4
-13 -1 -10 -21 3 -14 10 -32 16 -39 6 -8 8 -16 4 -20 -3 -3 -6 -1 -6 5 0 7 -7
12 -15 12 -12 0 -13 -5 -7 -17 5 -10 7 -24 5 -30 -3 -7 0 -13 5 -13 16 0 23
-31 11 -46 -6 -8 -8 -14 -4 -14 4 0 2 -7 -5 -15 -7 -9 -10 -19 -6 -22 4 -4 11
-1 16 7 6 9 10 10 10 3 0 -6 -5 -15 -11 -19 -6 -3 -9 -19 -7 -35 3 -16 0 -30
-6 -32 -6 -3 -8 -8 -4 -12 4 -4 15 -2 23 5 14 11 14 10 6 -12 -7 -18 -6 -29 2
-37 8 -8 7 -11 -5 -11 -9 0 -19 -7 -22 -16 -3 -8 -2 -13 3 -10 5 3 11 -1 14
-8 4 -9 -1 -16 -10 -18 -14 -3 -15 -5 -2 -18 22 -24 43 -63 29 -55 -9 5 -10 1
-5 -15 5 -15 4 -20 -4 -16 -6 4 -11 2 -11 -3 0 -6 6 -11 13 -11 6 0 3 -6 -7
-12 -18 -10 -18 -11 4 -23 15 -8 19 -15 11 -19 -6 -4 -11 -2 -11 3 0 6 -5 11
-12 11 -9 0 -9 -3 0 -12 14 -14 16 -48 4 -48 -5 0 -9 -7 -9 -15 0 -18 2 -18
30 -4 22 10 22 10 2 -6 -17 -14 -18 -17 -5 -25 10 -7 11 -10 3 -10 -8 0 -13
-14 -13 -37 0 -28 3 -34 10 -23 8 13 10 12 10 -2 0 -10 -4 -18 -9 -18 -5 0 -8
-11 -7 -24 0 -13 3 -24 6 -24 19 1 21 -4 6 -15 -16 -12 -17 -17 -5 -38 14 -27
17 -58 5 -77 -4 -7 0 -19 9 -28 14 -15 14 -17 -2 -29 -10 -7 -15 -17 -10 -21
4 -4 7 -2 7 4 0 7 7 12 15 12 14 0 14 -2 0 -23 -8 -13 -12 -27 -8 -30 3 -4 1
-7 -5 -7 -6 0 -9 -7 -5 -16 5 -13 7 -13 14 -2 6 8 7 -2 3 -26 -3 -24 -2 -36 5
-32 5 4 12 2 16 -4 3 -6 0 -13 -9 -16 -10 -4 -14 -18 -12 -47 1 -23 -2 -48 -7
-54 -7 -9 -5 -13 6 -13 9 0 18 -4 21 -9 3 -5 0 -8 -7 -7 -6 0 -13 -3 -14 -8
-1 -5 -7 -12 -14 -17 -10 -6 -10 -11 2 -25 12 -16 12 -17 -1 -9 -12 6 -12 5
-3 -5 8 -9 9 -20 2 -38 -7 -18 -6 -29 2 -36 9 -8 10 -7 6 7 -4 9 -2 17 3 17 6
0 10 -9 10 -20 0 -11 -5 -20 -11 -20 -8 0 -7 -6 2 -17 8 -9 9 -14 3 -10 -7 4
-14 -2 -17 -13 -3 -14 0 -20 10 -20 13 0 13 -3 -1 -25 -21 -32 -20 -34 7 -28
12 3 18 1 12 -4 -31 -26 -41 -82 -12 -67 7 3 4 -1 -5 -9 -19 -15 -25 -32 -8
-22 6 3 10 1 10 -6 0 -6 8 -18 18 -25 16 -13 16 -14 0 -8 -14 5 -18 1 -18 -16
0 -11 -4 -19 -9 -16 -18 12 -18 -19 0 -43 22 -27 15 -48 -9 -29 -14 10 -15 10
-4 -2 13 -16 17 -60 4 -60 -13 0 -5 -62 10 -71 10 -7 10 -9 1 -9 -19 0 -16
-20 5 -37 9 -8 11 -12 5 -8 -9 4 -13 -3 -13 -22 0 -16 -5 -34 -11 -40 -9 -9
-6 -10 10 -6 27 7 25 -17 -3 -33 -13 -8 -15 -13 -7 -18 6 -4 11 -2 11 4 0 6 4
8 10 5 6 -4 4 -17 -5 -35 -8 -16 -12 -37 -8 -46 4 -12 3 -15 -5 -10 -18 11
-14 -3 8 -32 15 -18 17 -28 9 -33 -6 -4 -9 -11 -5 -17 3 -6 0 -15 -9 -19 -13
-8 -12 -12 6 -32 l21 -22 -21 -6 c-17 -4 -19 -8 -10 -19 6 -8 8 -22 4 -31 -14
-32 -12 -53 4 -53 14 -1 13 -2 -1 -11 -22 -13 -23 -27 -1 -51 9 -11 11 -18 5
-18 -16 0 -15 -30 1 -31 6 0 3 -4 -8 -9 -13 -6 -15 -9 -5 -9 13 -1 13 -3 1
-10 -12 -8 -12 -12 -2 -24 9 -12 9 -17 0 -23 -9 -5 -7 -11 6 -21 11 -7 14 -13
7 -13 -6 0 -9 -6 -6 -14 3 -8 1 -17 -5 -21 -6 -3 -11 -14 -11 -23 0 -15 2 -15
10 -2 7 12 9 10 7 -8 -1 -12 -6 -21 -13 -18 -7 3 -9 -5 -6 -20 5 -28 22 -32
23 -6 0 10 2 12 6 4 3 -7 -3 -25 -13 -39 -12 -19 -13 -28 -6 -31 7 -2 12 -8
12 -14 0 -6 -6 -8 -13 -5 -10 4 -12 -3 -9 -24 2 -16 7 -27 11 -24 4 2 8 -2 8
-10 0 -8 -3 -12 -6 -10 -4 2 -12 -8 -18 -22 -11 -23 -10 -25 7 -20 27 7 25 -2
-2 -13 -18 -7 -19 -9 -5 -9 19 -1 23 -16 7 -26 -6 -4 -7 -12 -3 -18 12 -19 9
-41 -7 -55 -13 -11 -11 -12 10 -7 19 5 21 4 10 -4 -8 -5 -11 -13 -7 -17 4 -4
-1 -13 -11 -21 -16 -14 -16 -14 0 -9 19 6 35 -10 16 -16 -7 -3 -9 -11 -3 -24
14 -33 14 -44 -1 -44 -8 0 -11 -6 -8 -15 4 -9 0 -15 -7 -15 -10 0 -10 -3 -3
-8 6 -4 12 -15 12 -24 1 -10 3 -24 3 -30 1 -7 -2 -22 -7 -32 -5 -14 -4 -17 4
-12 8 5 10 2 6 -8 -3 -9 -1 -16 6 -16 7 0 6 -5 -3 -15 -10 -9 -13 -27 -10 -49
2 -19 0 -37 -6 -41 -16 -10 -13 -45 4 -45 8 0 15 -5 15 -11 0 -5 -5 -7 -12 -3
-6 4 -8 3 -5 -3 11 -18 16 -63 6 -68 -5 -4 -9 -11 -9 -16 0 -6 5 -7 12 -3 7 4
8 3 4 -4 -4 -7 -4 -18 1 -24 10 -17 14 -42 5 -33 -4 4 -7 12 -7 17 0 6 -6 13
-14 16 -8 3 -11 0 -8 -5 29 -47 35 -92 14 -105 -8 -5 -7 -8 3 -8 11 -1 10 -4
-4 -15 -11 -8 -15 -15 -8 -15 6 0 9 -7 5 -17 -4 -10 -2 -14 4 -10 15 10 3 -45
-15 -65 -17 -20 -3 -25 17 -5 10 10 11 9 6 -5 -4 -11 -2 -18 4 -18 6 0 1 -10
-10 -21 -16 -16 -18 -23 -9 -29 7 -4 10 -15 7 -24 -4 -9 -1 -16 6 -16 7 0 4
-5 -5 -11 -10 -5 -18 -19 -18 -30 0 -16 5 -19 23 -14 19 5 19 4 5 -5 -13 -8
-15 -16 -8 -34 6 -17 4 -30 -6 -45 -14 -19 -12 -25 7 -23 3 1 6 -6 6 -14 0 -7
-4 -14 -9 -14 -12 0 -10 -28 4 -36 7 -5 8 -3 3 6 -5 9 -4 11 4 6 8 -6 9 -12 2
-20 -7 -9 -7 -17 2 -26 9 -10 9 -11 0 -6 -7 4 -13 2 -13 -3 0 -6 5 -11 11 -11
5 0 7 -5 4 -10 -4 -6 -11 -7 -17 -4 -7 5 -9 1 -5 -9 3 -9 2 -19 -3 -22 -13 -8
4 -63 24 -77 6 -5 2 -8 -10 -8 -11 0 -21 -7 -21 -15 0 -8 4 -12 9 -8 6 3 7
-11 4 -32 -5 -28 -2 -43 11 -58 10 -11 13 -18 8 -14 -13 7 -41 -53 -29 -62 15
-10 17 -83 4 -91 -7 -4 -9 -13 -5 -20 6 -9 9 -9 16 1 6 10 8 7 6 -8 0 -13 -7
-25 -15 -28 -7 -3 -11 -9 -7 -14 3 -6 12 -8 20 -4 8 3 15 0 15 -7 0 -6 -4 -8
-10 -5 -12 7 -14 -18 -3 -29 13 -12 10 -31 -6 -37 -11 -4 -11 -8 3 -21 14 -14
14 -17 0 -22 -8 -3 -12 -2 -9 4 3 6 2 10 -4 10 -5 0 -12 -3 -14 -7 -7 -11 19
-33 29 -25 4 4 4 1 -1 -7 -5 -9 -1 -19 11 -29 14 -11 15 -13 3 -9 -11 4 -20
-3 -29 -21 -6 -15 -9 -24 -5 -20 4 4 13 2 20 -5 9 -9 9 -14 -2 -25 -15 -15 -9
-75 10 -102 9 -12 9 -13 -3 -3 -8 7 -18 13 -22 13 -13 0 -9 -38 5 -43 18 -7
14 -76 -4 -88 -12 -7 -7 -13 11 -11 3 0 6 -7 6 -17 0 -13 -6 -17 -21 -14 -11
2 -14 1 -7 -3 6 -3 9 -11 5 -17 -4 -6 0 -8 10 -4 9 3 19 1 23 -5 4 -7 3 -8 -4
-4 -7 4 -12 1 -12 -8 0 -8 5 -18 10 -21 14 -9 12 -21 -5 -38 -13 -13 -13 -16
0 -21 8 -3 15 -11 15 -18 0 -10 -2 -10 -8 -1 -5 8 -13 9 -22 3 -10 -6 -11 -10
-3 -10 7 0 10 -7 6 -17 -4 -10 -2 -14 4 -10 15 10 3 -45 -15 -65 -17 -20 -3
-25 17 -6 10 11 11 10 6 -4 -5 -12 -2 -18 6 -18 12 0 12 -2 1 -9 -16 -10 -22
-81 -7 -81 5 0 2 -5 -7 -11 -10 -5 -18 -19 -18 -30 0 -16 5 -19 23 -14 15 4
18 3 9 -3 -8 -5 -13 -12 -13 -16 4 -25 -1 -36 -16 -37 -13 0 -12 -3 6 -10 20
-8 21 -11 10 -25 -11 -14 -11 -18 4 -29 19 -14 12 -26 -10 -18 -13 5 -13 3 -4
-15 7 -12 14 -22 17 -22 3 0 2 5 -2 12 -4 7 -3 8 5 4 9 -6 9 -11 1 -21 -7 -8
-7 -15 -1 -19 5 -3 7 -15 4 -26 -3 -11 -10 -17 -16 -13 -6 4 -8 0 -4 -9 3 -9
0 -21 -6 -27 -8 -8 -7 -11 3 -11 12 0 13 -2 1 -9 -9 -6 -10 -11 -2 -15 13 -8
15 -46 3 -46 -5 0 -9 -7 -9 -15 0 -8 4 -12 9 -8 5 3 7 -8 5 -25 -3 -17 1 -42
8 -56 9 -17 10 -25 2 -23 -6 1 -11 -3 -12 -10 0 -6 -3 -15 -7 -19 -5 -4 -8
-16 -8 -26 0 -15 5 -18 21 -13 18 6 19 5 8 -13 -10 -17 -10 -24 2 -38 13 -16
12 -17 -5 -11 -16 6 -17 5 -7 -7 10 -11 8 -17 -6 -26 -16 -10 -15 -10 5 -5 13
4 22 2 22 -4 0 -6 -5 -11 -11 -11 -5 0 -7 -5 -4 -10 3 -6 1 -10 -4 -10 -6 0
-11 -4 -11 -10 0 -5 7 -10 15 -10 8 0 15 -5 15 -11 0 -5 -4 -7 -10 -4 -11 7
-14 -18 -3 -29 12 -12 12 -36 0 -36 -8 0 -11 -15 -9 -42 5 -74 4 -72 19 -52
12 16 13 16 13 1 0 -10 -6 -20 -13 -23 -15 -5 -20 -44 -6 -44 5 0 9 -5 9 -11
0 -6 -6 -9 -13 -6 -16 6 -17 -37 -3 -50 5 -5 6 -1 1 7 -5 8 -4 12 0 7 12 -10
15 -38 4 -31 -13 8 -11 -20 3 -34 9 -9 6 -14 -13 -21 -17 -7 -19 -10 -6 -10
19 -1 23 -16 7 -26 -8 -5 -8 -11 -1 -19 6 -7 8 -16 4 -20 -4 -4 -1 -11 7 -16
13 -8 12 -10 -2 -10 -21 0 -22 -4 -6 -33 15 -28 19 -49 7 -41 -5 3 -9 -4 -9
-15 0 -12 4 -21 9 -21 17 0 8 -40 -9 -40 -12 -1 -12 -3 3 -11 19 -11 23 -29 6
-29 -5 0 -7 5 -3 12 5 7 3 8 -5 3 -9 -5 -7 -13 10 -31 19 -20 20 -27 11 -46
-11 -22 -11 -22 -7 4 2 17 -2 29 -11 32 -11 4 -13 2 -6 -11 11 -19 4 -53 -11
-53 -6 0 -1 -7 11 -16 19 -13 20 -17 8 -29 -8 -8 -13 -23 -11 -32 2 -10 4 -24
4 -31 1 -7 7 -10 14 -7 6 4 5 1 -4 -7 -11 -9 -14 -21 -8 -41 4 -16 5 -36 2
-44 -4 -10 3 -23 18 -35 13 -10 17 -17 9 -16 -19 4 -21 -51 -2 -71 11 -12 11
-15 0 -22 -10 -7 -9 -9 4 -9 12 0 16 -6 12 -25 -2 -14 0 -25 4 -25 5 0 23 -14
40 -30 18 -17 34 -30 38 -30 3 0 12 -7 20 -15 9 -8 28 -15 44 -15 16 0 31 -4
34 -9 16 -25 330 -61 542 -61 148 0 189 -6 172 -27 -47 -57 -293 -97 -593 -96
-429 0 -825 78 -973 191 l-47 35 26 -34 c144 -189 659 -300 1335 -285 l282 6
-3 -68 c-4 -104 -15 -311 -25 -492 -6 -91 -12 -205 -15 -255 -19 -333 -35
-489 -57 -565 -10 -36 -20 -70 -21 -76 -6 -24 -60 -94 -91 -118 -41 -31 -150
-82 -196 -91 -53 -11 -64 -24 -43 -48 17 -19 17 -20 0 -14 -9 4 -17 3 -17 -1
0 -4 -19 -13 -42 -19 -55 -15 -240 -44 -246 -39 -2 2 2 14 8 26 7 12 12 52 13
89 2 116 -51 175 -218 241 -75 30 -328 106 -435 130 -124 29 -400 136 -400
155 0 3 10 10 23 15 19 7 16 9 -18 9 -77 1 -360 -115 -439 -181 -49 -40 -38
-56 71 -102 101 -42 134 -48 55 -10 -29 15 -51 28 -48 31 2 2 13 0 23 -5 10
-5 56 -20 103 -32 129 -34 129 -52 0 -25 l-25 6 24 -11 c14 -6 104 -31 200
-55 369 -93 469 -130 530 -201 28 -32 32 -41 26 -72 -14 -75 -28 -89 -97 -96
-35 -4 -135 -18 -223 -31 -210 -32 -414 -55 -497 -55 -73 0 -285 24 -362 42
-27 6 -67 21 -90 34 -43 25 -39 30 10 15 16 -5 43 -12 59 -16 l30 -7 -27 29
c-31 33 -76 118 -84 162 -4 17 -10 33 -14 36 -14 9 -97 -53 -119 -88 -18 -30
-22 -52 -23 -126 -1 -68 3 -97 16 -115 61 -93 204 -143 476 -166 260 -23 566
13 1680 196 528 87 666 130 717 227 23 44 23 180 1 223 -21 39 -70 76 -131 99
-26 10 -50 22 -53 26 -3 5 -1 42 5 81 17 126 40 411 61 768 31 543 33 560 39
564 4 3 56 15 116 29 275 62 426 166 428 295 1 42 -6 61 -37 112 l-39 62 22
432 c20 399 59 1184 96 1931 52 1077 89 1898 120 2695 14 363 19 524 46 1375
6 193 14 361 19 375 4 14 4 73 -1 130 -4 58 -12 175 -19 260 -19 264 -21 292
-30 390 -5 52 -12 129 -14 170 -14 190 -18 245 -32 385 -8 83 -23 260 -34 395
-11 135 -25 281 -30 325 -11 97 -19 173 -35 360 -3 39 -12 129 -20 200 -8 72
-17 168 -20 215 -3 47 -7 101 -10 120 -3 19 -7 60 -10 90 -5 55 -21 215 -30
300 -8 80 -13 143 -20 225 -3 44 -12 137 -18 208 -7 70 -9 127 -5 127 4 0 1
10 -5 23 -7 13 -12 58 -12 100 0 42 -4 77 -9 77 -5 0 -2 8 5 17 10 12 10 14 1
9 -9 -5 -11 1 -6 28 3 19 0 45 -6 57 -7 12 -8 19 -2 15 5 -3 12 3 15 14 3 11
1 23 -5 26 -5 3 -7 13 -4 21 3 8 1 11 -4 8 -6 -3 -10 -2 -10 4 0 5 5 11 10 13
16 5 15 79 -1 92 -8 6 -16 29 -17 51 -2 30 0 36 7 25 7 -9 11 -10 11 -3 0 6
-5 15 -10 18 -6 4 -10 21 -8 39 1 17 -2 38 -7 45 -5 9 -4 12 2 8 12 -7 10 113
-3 237 -4 39 -8 81 -8 94 -1 12 -3 22 -6 22 -3 0 -6 12 -7 28 -3 40 -32 161
-44 184 -6 11 -13 32 -15 46 -3 15 -11 30 -17 34 -7 4 -9 8 -4 8 4 0 1 16 -7
35 -8 19 -12 35 -9 35 3 0 1 6 -5 13 -6 7 -13 26 -16 43 -6 35 -34 93 -53 113
-8 7 -11 22 -8 32 4 10 2 19 -4 19 -6 0 -8 7 -5 15 3 8 -1 24 -9 36 -9 12 -13
27 -11 34 3 7 0 16 -5 20 -6 3 -8 11 -5 17 5 8 1 9 -10 5 -9 -4 -15 -3 -11 2
3 5 -1 16 -9 24 -10 9 -11 18 -5 24 7 7 5 16 -6 27 -9 9 -13 20 -10 26 3 5 0
10 -7 10 -9 0 -9 3 2 10 13 8 12 10 -2 10 -10 0 -18 7 -18 15 0 8 -6 15 -12
15 -9 0 -13 18 -14 52 -1 31 -6 54 -13 56 -9 3 -9 7 0 18 9 11 8 14 -8 14 -23
0 -56 61 -46 86 5 13 3 15 -8 10 -8 -4 -6 -1 4 7 12 10 14 17 8 22 -6 3 -11 1
-11 -4 0 -6 -4 -11 -9 -11 -13 0 -23 32 -13 39 18 12 20 40 5 62 -9 12 -11 19
-5 15 6 -3 13 -2 16 3 4 5 2 12 -4 16 -15 9 -12 28 4 22 17 -7 28 16 19 40 -4
11 -3 14 5 9 7 -4 12 -2 12 3 0 6 -4 11 -10 11 -5 0 -10 5 -10 10 0 6 8 10 18
8 12 -2 17 4 17 20 0 13 8 28 18 33 9 6 17 18 18 27 0 10 3 12 6 5 7 -18 23
-16 23 2 0 8 5 15 11 15 6 0 8 -7 5 -16 -3 -8 -2 -12 4 -9 6 3 10 1 10 -4 0
-17 24 -8 37 14 11 18 12 18 13 2 0 -14 5 -17 20 -12 12 4 26 0 36 -10 12 -12
20 -13 27 -6 6 6 18 11 27 11 9 0 5 -5 -10 -13 -26 -13 -40 -47 -20 -47 6 0 8
5 5 11 -4 6 0 9 11 7 11 -2 18 2 17 9 -1 6 4 14 12 17 11 4 13 -1 8 -26 -4
-22 -3 -29 5 -24 8 5 10 2 6 -9 -4 -8 0 -22 7 -31 12 -14 14 -13 21 6 5 15 4
28 -4 39 -11 14 -11 14 2 4 15 -11 19 -12 43 -14 6 0 2 -4 -10 -9 -24 -10 -30
-25 -13 -35 6 -4 7 1 4 12 -5 17 -5 17 9 0 8 -10 19 -17 23 -15 5 1 20 -3 34
-10 22 -12 23 -11 8 1 -10 8 -18 20 -18 27 0 7 -7 10 -17 6 -17 -6 -17 -5 0 8
14 10 15 15 5 19 -8 4 -7 6 5 6 9 1 17 -4 17 -9 0 -6 13 -4 30 5 17 9 30 11
30 6 0 -9 -31 -38 -37 -33 -1 1 -9 2 -15 2 -7 0 -2 -7 10 -16 12 -8 19 -20 16
-26 -4 -7 -2 -8 4 -4 7 4 12 16 12 27 0 12 7 19 20 19 10 0 23 7 28 16 6 11
25 16 65 17 32 1 58 -2 60 -6 1 -5 10 -5 20 -1 10 3 16 12 13 19 -2 6 0 18 6
26 8 11 9 11 5 -2 -3 -9 1 -26 9 -37 9 -13 11 -23 4 -27 -5 -3 -10 -14 -10
-23 0 -14 2 -13 14 3 8 11 19 16 30 12 17 -7 23 8 6 18 -5 3 -10 12 -9 18 0 8
2 8 6 -1 7 -17 33 4 33 27 0 9 5 22 11 28 16 16 -93 28 -147 16 -24 -6 -41 -6
-38 -2 3 5 -11 9 -31 9 -23 0 -34 -4 -30 -11 4 -6 -3 -5 -15 3 -18 11 -23 11
-30 -2 -23 -38 -29 -44 -37 -36 -4 4 0 12 10 17 25 14 21 27 -10 33 -41 8
-227 21 -305 20 -38 0 -68 3 -68 6 0 3 -10 6 -22 7 -13 1 -66 7 -118 12 -52 6
-174 18 -270 26 -96 9 -236 24 -310 35 -74 10 -162 21 -195 25 -33 3 -114 15
-180 26 -173 29 -182 30 -188 16z m1283 -163 c0 -2 -9 -4 -21 -4 -11 0 -18 4
-14 10 5 8 35 3 35 -6z m-43 -36 c-3 -8 -6 -5 -6 6 -1 11 2 17 5 13 3 -3 4
-12 1 -19z m537 -4 c3 -8 2 -12 -4 -9 -6 3 -10 10 -10 16 0 14 7 11 14 -7z
m-214 -15 c0 -7 10 -9 28 -5 20 5 23 4 12 -4 -13 -9 -13 -10 0 -10 11 0 10 -3
-4 -12 -15 -8 -21 -7 -28 6 -5 9 -16 16 -23 16 -8 0 -15 5 -15 10 0 6 7 10 15
10 8 0 15 -5 15 -11z m280 -4 c0 -11 -29 -11 -33 -1 -4 10 1 12 14 9 10 -3 19
-7 19 -8z m-644 -409 c8 -8 11 -17 6 -20 -4 -2 -13 4 -20 15 -14 22 -7 25 14
5z m-1246 -1546 c0 -5 -2 -10 -4 -10 -3 0 -8 5 -11 10 -3 6 -1 10 4 10 6 0 11
-4 11 -10z m14 -86 c3 -8 2 -12 -4 -9 -6 3 -10 10 -10 16 0 14 7 11 14 -7z
m-7 -186 c-3 -8 -6 -5 -6 6 -1 11 2 17 5 13 3 -3 4 -12 1 -19z m22 -396 c-5
-2 -6 -9 -3 -14 4 -7 2 -8 -4 -4 -7 4 -12 16 -12 27 0 16 2 18 14 7 8 -7 10
-15 5 -16z m38 -724 c-3 -8 -6 -5 -6 6 -1 11 2 17 5 13 3 -3 4 -12 1 -19z m-7
-138 c0 -5 -2 -10 -4 -10 -3 0 -8 5 -11 10 -3 6 -1 10 4 10 6 0 11 -4 11 -10z
m20 -106 c0 -8 -5 -12 -10 -9 -6 4 -8 11 -5 16 9 14 15 11 15 -7z m-13 -49 c0
-11 -4 -12 -14 -4 -7 6 -13 13 -13 15 0 2 6 4 13 4 8 0 14 -7 14 -15z m13 -60
c0 -8 -4 -15 -10 -15 -5 0 -7 7 -4 15 4 8 8 15 10 15 2 0 4 -7 4 -15z m65
-1675 c3 -5 1 -10 -4 -10 -6 0 -11 5 -11 10 0 6 2 10 4 10 3 0 8 -4 11 -10z
m45 -3610 c0 -5 -2 -10 -4 -10 -3 0 -8 5 -11 10 -3 6 -1 10 4 10 6 0 11 -4 11
-10z m10 -55 c0 -8 -4 -15 -10 -15 -5 0 -7 7 -4 15 4 8 8 15 10 15 2 0 4 -7 4
-15z m-5 -645 c-3 -5 -11 -10 -16 -10 -6 0 -7 5 -4 10 3 6 11 10 16 10 6 0 7
-4 4 -10z m-5 -414 c0 -3 -4 -8 -10 -11 -5 -3 -10 -1 -10 4 0 6 5 11 10 11 6
0 10 -2 10 -4z m3 -1650 c4 -10 1 -13 -9 -9 -7 3 -14 9 -14 14 0 14 17 10 23
-5z m4 -1222 c-3 -3 -12 -4 -19 -1 -8 3 -5 6 6 6 11 1 17 -2 13 -5z"/>
<path d="M5900 17860 c-9 -6 -10 -10 -3 -10 6 0 15 5 18 10 8 12 4 12 -15 0z"/>
<path d="M6225 17851 c-3 -5 -1 -12 4 -15 5 -4 12 -2 16 4 4 6 11 8 16 5 5 -4
9 -1 9 4 0 13 -37 15 -45 2z"/>
<path d="M6147 17834 c-3 -3 -3 -13 0 -21 5 -12 7 -12 14 -1 15 23 4 40 -14
22z"/>
<path d="M6283 17825 c0 -8 4 -12 9 -9 5 3 6 10 3 15 -9 13 -12 11 -12 -6z"/>
<path d="M5630 17560 c6 -11 15 -18 21 -15 13 9 11 13 -12 25 -19 11 -20 10
-9 -10z"/>
<path d="M4375 17520 c-3 -5 -1 -10 4 -10 6 0 11 5 11 10 0 6 -2 10 -4 10 -3
0 -8 -4 -11 -10z"/>
<path d="M4315 16850 c-3 -5 -1 -10 4 -10 6 0 11 5 11 10 0 6 -2 10 -4 10 -3
0 -8 -4 -11 -10z"/>
<path d="M6464 16233 c-15 -16 -23 -21 -19 -13 4 8 -4 3 -17 -12 -14 -15 -28
-25 -32 -21 -3 3 -6 -1 -6 -10 0 -9 -5 -17 -11 -17 -13 0 -32 -19 -48 -48 -6
-12 -18 -22 -26 -22 -8 0 -15 -9 -15 -20 0 -11 -6 -19 -12 -17 -7 1 -12 -4
-10 -10 1 -7 -5 -13 -14 -13 -9 0 -12 -5 -8 -12 5 -8 2 -9 -9 -5 -11 4 -17 1
-17 -9 0 -8 -12 -26 -26 -39 -15 -14 -23 -26 -18 -26 5 -1 14 -2 19 -4 6 -1
19 -3 30 -4 15 -1 17 -3 7 -10 -18 -11 -16 -21 11 -51 21 -24 21 -24 1 -7 -21
17 -21 17 -17 -8 3 -13 10 -22 15 -19 5 3 12 -3 15 -15 3 -12 9 -21 13 -21 5
0 6 10 3 23 -3 12 -2 19 2 15 5 -5 8 -24 7 -44 -1 -35 16 -64 38 -64 8 0 8 -6
-1 -21 -6 -12 -7 -19 -2 -16 5 3 15 2 23 -4 8 -5 10 -9 5 -9 -6 0 -11 -9 -12
-20 -1 -11 2 -20 8 -20 5 0 9 6 9 13 0 6 5 4 11 -7 6 -10 7 -21 3 -25 -5 -3
-11 -15 -12 -26 -4 -17 -1 -17 17 5 l21 25 -11 -27 c-10 -23 -9 -31 5 -47 10
-11 15 -25 10 -32 -4 -7 -3 -10 3 -6 6 4 16 0 23 -8 11 -13 10 -14 -4 -9 -10
4 -16 1 -16 -7 0 -20 35 -70 43 -62 13 12 7 -23 -5 -36 -11 -11 -9 -12 8 -3
16 9 21 8 21 -3 0 -8 -4 -12 -9 -9 -4 3 -8 -1 -8 -10 0 -8 -2 -21 -5 -29 -4
-8 0 -14 9 -14 8 0 12 7 9 16 -4 14 -3 14 5 2 7 -10 7 -21 1 -32 -5 -10 -9
-33 -8 -51 0 -31 1 -32 11 -10 12 24 30 30 27 10 -3 -29 2 -49 11 -43 6 3 1
-10 -11 -29 -20 -34 -15 -48 8 -25 8 8 13 8 18 0 4 -7 1 -10 -7 -9 -9 2 -12
-8 -9 -37 4 -46 8 -55 24 -55 8 0 8 3 -1 12 -7 7 -12 17 -12 22 0 6 7 0 16
-13 14 -19 14 -25 3 -32 -12 -8 -12 -11 1 -19 8 -5 10 -10 4 -10 -7 0 -15 -7
-18 -16 -3 -8 -2 -13 2 -11 4 3 13 -1 20 -9 11 -12 10 -14 -5 -14 -15 0 -15
-2 3 -16 10 -8 14 -13 7 -10 -6 4 -15 1 -18 -5 -4 -6 2 -13 14 -16 22 -6 27
-18 11 -28 -5 -3 -10 -12 -9 -18 0 -9 2 -8 6 1 9 24 21 1 17 -33 -2 -19 0 -35
6 -35 5 0 7 -6 5 -12 -15 -42 -13 -67 6 -73 22 -7 25 -21 7 -28 -8 -3 -6 -6 5
-6 14 -1 17 -10 17 -54 0 -29 -5 -58 -12 -65 -9 -9 -9 -12 2 -12 7 0 10 -3 7
-7 -4 -3 0 -17 8 -30 9 -13 11 -23 6 -23 -6 0 -4 -17 4 -40 8 -22 12 -48 10
-57 -2 -10 -4 -22 -5 -28 -6 -28 0 -36 16 -20 9 9 19 13 22 10 4 -3 0 -10 -8
-15 -13 -9 -13 -10 0 -11 8 -1 18 -1 23 0 11 2 9 -17 -3 -24 -5 -3 -10 0 -10
7 0 8 -6 6 -17 -5 -17 -17 -17 -19 0 -28 19 -11 24 -39 6 -39 -5 0 -7 -5 -4
-10 4 -6 11 -8 16 -5 5 4 9 -10 9 -29 0 -23 -6 -39 -17 -45 -23 -13 -12 -14
24 -1 28 10 28 9 6 -6 -22 -16 -33 -42 -13 -29 14 9 12 -8 -2 -25 -8 -8 -1 -6
15 4 36 22 47 15 11 -8 -20 -14 -24 -23 -19 -43 4 -16 2 -22 -5 -18 -23 14 -8
-4 16 -20 22 -14 28 -15 35 -4 7 11 9 10 9 -3 0 -10 -6 -18 -14 -18 -8 0 -18
-5 -22 -12 -5 -7 -1 -9 12 -6 15 4 20 0 21 -16 1 -12 -1 -15 -4 -8 -3 6 -9 12
-14 12 -6 0 -5 -8 1 -20 6 -11 16 -18 22 -14 6 4 9 1 6 -7 -3 -8 -1 -22 4 -31
6 -12 5 -18 -2 -18 -6 0 -8 -4 -5 -10 4 -6 -3 -6 -21 0 -15 6 -29 8 -32 5 -4
-3 4 -8 17 -12 17 -4 19 -8 9 -14 -11 -7 -10 -11 2 -19 13 -9 13 -11 0 -20
-12 -8 -11 -10 8 -10 19 0 21 -4 16 -25 -4 -17 -1 -27 9 -31 8 -3 18 -17 22
-32 7 -25 8 -26 15 -7 6 13 9 15 9 5 0 -8 -7 -24 -15 -35 -15 -19 -16 -19 -29
-1 -8 10 -20 16 -27 13 -10 -4 -10 -6 0 -6 6 -1 12 -9 12 -18 1 -19 43 -73 58
-73 5 0 9 -7 9 -15 0 -16 -12 -11 -44 18 -13 11 -23 15 -23 9 0 -6 9 -16 21
-23 16 -8 20 -18 17 -40 -3 -16 -2 -29 2 -29 4 0 12 -12 18 -26 7 -14 17 -22
22 -19 6 3 10 -1 10 -10 0 -13 -4 -14 -20 -5 -26 14 -25 6 2 -20 12 -11 28
-18 35 -16 7 3 13 1 13 -4 0 -13 -16 -13 -39 -1 -13 7 -18 6 -18 -5 0 -7 7
-14 16 -14 14 -1 14 -2 -1 -14 -10 -7 -18 -17 -18 -21 0 -4 7 -2 15 5 11 9 15
9 15 1 0 -7 4 -10 9 -6 6 3 8 -6 5 -22 -7 -35 -13 -41 -24 -23 -6 8 -10 10
-10 4 0 -5 5 -15 11 -21 8 -8 8 -13 0 -17 -6 -4 -11 -12 -11 -18 0 -6 11 -3
25 6 29 19 35 20 35 5 0 -5 -4 -8 -9 -4 -6 3 -15 -3 -21 -14 -7 -14 -7 -22 2
-27 6 -4 8 -3 4 4 -3 6 -3 13 2 16 4 2 9 -4 9 -15 1 -11 -5 -19 -14 -19 -13 0
-13 -3 -2 -16 10 -13 10 -17 0 -24 -15 -9 -6 -30 12 -30 8 0 8 3 -2 9 -17 11
-1 19 24 12 21 -6 33 -31 15 -31 -5 0 -10 5 -10 12 0 6 -7 3 -15 -8 -8 -10
-14 -26 -15 -34 0 -13 1 -13 10 0 8 12 10 10 11 -10 3 -53 4 -55 28 -52 l23 2
-23 -20 c-23 -18 -23 -19 -4 -21 19 -1 19 -1 -1 -7 -19 -6 -20 -10 -11 -32 10
-24 11 -24 14 -3 2 12 12 24 21 28 14 5 15 4 5 -6 -7 -7 -13 -24 -13 -39 0
-20 2 -22 11 -10 8 11 9 9 3 -9 -3 -14 -16 -33 -28 -43 -12 -9 -15 -17 -8 -18
6 0 12 5 12 10 0 6 7 10 16 10 8 0 13 -4 9 -10 -3 -5 1 -26 10 -47 13 -33 13
-35 0 -19 -16 22 -45 30 -45 14 0 -6 7 -7 16 -4 10 4 13 2 7 -7 -4 -6 -8 -33
-8 -59 0 -42 1 -45 16 -32 21 19 55 8 38 -13 -10 -11 -14 -11 -20 -1 -6 9 -9
9 -9 1 0 -20 20 -26 37 -11 15 12 15 11 0 -12 -14 -23 -14 -28 4 -64 13 -28
16 -42 8 -47 -8 -5 -8 -8 0 -13 6 -4 11 -13 11 -19 0 -8 -3 -8 -9 1 -7 11 -9
11 -14 -2 -5 -12 0 -16 21 -16 20 0 23 -3 13 -9 -12 -8 -12 -12 -2 -25 8 -9
10 -16 6 -16 -4 0 -14 8 -21 18 -12 15 -12 15 -7 -6 3 -12 1 -28 -5 -35 -5 -6
-10 -27 -10 -45 -1 -28 2 -31 14 -21 8 6 17 9 21 6 3 -4 11 1 18 10 9 13 14
13 20 3 5 -8 4 -11 -2 -7 -6 4 -13 0 -17 -8 -3 -8 -13 -15 -22 -15 -12 0 -15
-6 -10 -22 3 -13 6 -29 6 -35 0 -7 6 -13 14 -13 7 0 19 -6 25 -14 10 -11 8
-17 -6 -25 -17 -10 -17 -12 3 -29 l20 -17 -22 -19 c-16 -15 -19 -22 -10 -32 6
-6 14 -10 19 -7 4 2 7 -2 7 -9 0 -8 -3 -18 -7 -24 -5 -5 -1 -1 9 8 24 27 28
22 11 -13 -14 -28 -14 -31 3 -45 18 -13 17 -14 -9 -10 -26 4 -27 3 -15 -12 7
-9 19 -23 26 -31 7 -7 10 -16 7 -19 -3 -4 -10 0 -15 8 -8 13 -10 12 -10 -2 0
-11 7 -18 18 -18 14 0 14 -2 3 -9 -12 -8 -12 -11 1 -25 9 -8 18 -12 22 -9 3 4
6 1 6 -5 0 -6 -8 -16 -17 -22 -17 -11 -17 -11 0 -6 23 7 22 -5 -3 -31 -13 -15
-16 -23 -7 -26 9 -3 9 -10 -1 -31 -12 -26 -11 -27 10 -20 20 6 21 5 10 -8 -13
-16 -7 -48 9 -48 5 0 9 -10 8 -22 0 -22 -1 -22 -9 -3 -8 19 -9 19 -9 -3 -1
-19 3 -21 22 -17 17 5 24 2 24 -9 0 -8 -4 -13 -9 -10 -17 11 -29 -7 -16 -24
11 -13 11 -14 -1 -7 -10 5 -12 4 -7 -3 4 -7 18 -12 32 -12 13 0 24 -4 24 -9 0
-5 -10 -7 -22 -4 -13 3 -20 2 -15 -2 4 -5 0 -20 -10 -34 l-16 -26 22 20 c19
16 24 17 31 5 7 -11 2 -17 -20 -25 l-30 -10 22 -15 c13 -8 29 -13 36 -12 10 2
9 -4 -4 -22 -9 -14 -13 -26 -9 -26 4 0 2 -6 -4 -14 -9 -11 -6 -21 16 -46 25
-30 26 -32 5 -21 -13 7 -28 10 -35 7 -7 -2 -5 -5 4 -5 17 -1 29 -28 29 -71 0
-18 3 -21 9 -11 6 9 9 5 9 -14 0 -18 -3 -23 -9 -14 -5 9 -10 5 -14 -14 -8 -32
11 -61 34 -52 8 3 12 3 8 -1 -4 -4 -2 -13 4 -21 9 -10 8 -13 -5 -13 -19 0 -22
-20 -3 -21 6 0 4 -4 -7 -8 -17 -7 -17 -8 -2 -24 15 -15 16 -17 2 -17 -9 0 -16
5 -16 11 0 5 -5 7 -12 3 -8 -5 -2 -12 17 -20 25 -10 27 -12 10 -17 -17 -4 -17
-5 -2 -6 20 -1 22 -12 5 -30 -10 -11 -10 -14 0 -18 6 -3 12 -11 12 -19 0 -9
-4 -12 -10 -9 -5 3 -10 2 -10 -4 0 -6 11 -13 25 -17 26 -6 32 -18 16 -28 -5
-4 -11 -1 -13 5 -2 7 -4 -4 -4 -24 0 -20 2 -33 6 -29 3 5 14 12 25 15 17 6 18
5 4 -5 -23 -20 -20 -56 6 -51 11 2 15 1 8 -3 -14 -6 2 -50 21 -57 6 -2 -2 -2
-19 0 -20 3 -26 1 -17 -5 8 -5 13 -12 13 -16 -3 -22 2 -28 9 -11 8 19 9 19 9
-3 1 -13 5 -20 11 -17 6 3 7 -1 4 -9 -3 -9 -10 -16 -16 -16 -5 0 -6 5 -2 11 4
7 1 10 -7 7 -8 -3 -16 -13 -17 -23 -3 -10 0 -15 7 -11 6 4 11 0 11 -8 0 -9 -5
-16 -11 -16 -5 0 -8 -4 -4 -10 3 -5 12 -7 20 -3 8 3 15 0 15 -7 0 -6 -3 -9 -7
-7 -5 2 -16 -4 -25 -14 -14 -15 -14 -18 -2 -23 9 -4 13 -15 10 -31 -4 -21 -2
-25 12 -20 13 4 18 -1 19 -17 2 -18 0 -19 -7 -8 -8 13 -11 13 -25 -1 -15 -15
-14 -17 9 -33 24 -15 39 -55 16 -41 -5 3 -10 2 -10 -4 0 -5 6 -11 13 -14 6 -2
8 -8 4 -13 -4 -4 -17 -3 -27 4 -27 17 -25 5 3 -19 19 -16 20 -20 7 -28 -12 -9
-13 -14 -2 -31 8 -13 8 -20 1 -20 -5 0 -7 -5 -4 -10 4 -6 10 -8 15 -5 5 3 11
1 15 -5 3 -5 -1 -10 -11 -10 -14 0 -15 -2 -3 -17 8 -9 9 -14 3 -10 -7 4 -14 0
-18 -8 -3 -8 0 -14 7 -12 6 1 13 -9 15 -23 3 -24 3 -25 -12 -5 -8 11 -15 16
-15 10 0 -17 25 -45 34 -37 4 4 1 -3 -6 -15 -8 -13 -17 -23 -21 -23 -5 0 -8
-5 -8 -11 0 -5 4 -8 9 -5 5 3 11 -1 15 -9 3 -10 -1 -15 -11 -15 -15 0 -15 -1
-1 -12 19 -15 36 -64 19 -54 -16 10 -13 -10 4 -28 19 -19 19 -24 -1 -22 -9 0
-19 -5 -22 -13 -2 -8 0 -11 6 -8 5 4 15 0 22 -8 9 -10 9 -15 1 -15 -6 0 -11
-7 -11 -15 0 -8 6 -12 14 -9 16 6 30 -38 20 -68 -5 -16 -8 -18 -15 -7 -12 19
-25 -2 -24 -38 0 -19 5 -27 15 -25 12 3 13 1 3 -9 -17 -17 -16 -30 0 -23 8 3
14 -2 14 -11 0 -11 -6 -15 -18 -12 -12 3 -16 0 -12 -9 3 -8 9 -11 14 -8 5 3 9
-6 9 -20 0 -14 -5 -26 -11 -26 -5 0 -7 -5 -4 -11 4 -6 13 -8 21 -5 8 3 14 1
14 -4 0 -6 -5 -10 -11 -10 -5 0 -7 -5 -4 -10 3 -6 -1 -13 -9 -16 -9 -3 -16 -9
-16 -13 0 -11 34 -10 41 1 3 5 9 3 12 -6 4 -9 3 -15 -1 -15 -32 5 -38 -3 -38
-51 -1 -27 2 -47 6 -45 4 3 8 -7 8 -20 0 -16 -6 -25 -15 -25 -12 0 -13 -3 -4
-14 7 -8 13 -30 14 -49 1 -19 6 -33 10 -30 5 3 7 13 4 23 -3 13 0 17 9 13 10
-4 11 -10 3 -24 -5 -11 -7 -24 -4 -29 3 -5 1 -11 -4 -14 -4 -3 -8 -17 -8 -32
0 -14 -7 -30 -14 -35 -11 -7 -11 -9 1 -9 9 0 21 5 28 12 7 7 12 8 12 4 0 -5
-7 -14 -15 -20 -9 -6 -17 -21 -18 -34 0 -12 -5 -22 -10 -22 -4 0 -5 -5 -2 -11
4 -6 14 -8 22 -4 14 5 14 3 2 -11 -16 -19 -21 -44 -8 -44 17 0 32 -41 19 -54
-8 -8 -10 -7 -5 5 4 10 1 20 -6 25 -9 5 -11 -2 -6 -28 3 -21 1 -40 -6 -47 -6
-6 -7 -11 -2 -11 6 0 3 -5 -5 -10 -13 -8 -12 -10 4 -10 12 0 16 5 12 16 -4 9
-2 13 5 8 6 -3 9 -17 6 -30 -2 -13 0 -21 5 -18 5 3 6 -5 3 -19 -4 -15 -2 -28
6 -32 8 -6 5 -13 -12 -26 -20 -15 -22 -20 -10 -31 12 -11 13 -10 8 5 -4 10 -3
16 2 13 5 -3 11 -17 13 -31 3 -13 2 -22 -3 -20 -4 3 -11 0 -15 -6 -3 -6 -1
-15 7 -19 10 -7 10 -11 -1 -25 -9 -11 -10 -19 -4 -23 19 -13 24 -42 8 -42 -11
0 -13 -6 -9 -21 4 -13 3 -19 -2 -16 -5 4 -10 0 -10 -8 0 -12 3 -12 15 -3 11
10 14 8 12 -12 -1 -14 -2 -38 -1 -55 1 -24 3 -27 12 -15 8 11 9 9 3 -10 -4
-13 -8 -37 -9 -53 -1 -16 -7 -32 -14 -36 -15 -10 -4 -38 14 -38 10 0 12 4 5
12 -9 11 -4 25 9 25 15 0 10 -48 -5 -54 -13 -5 -15 -15 -9 -52 4 -32 3 -44 -4
-40 -7 4 -8 1 -5 -8 3 -9 11 -16 17 -16 6 0 3 -6 -8 -13 -20 -16 -13 -38 13
-36 15 1 15 2 0 6 -21 5 -24 23 -4 23 13 0 26 -20 26 -40 0 -4 -10 -6 -22 -2
-23 5 -23 5 -4 -16 15 -18 16 -22 4 -22 -10 0 -15 -10 -16 -30 0 -17 4 -30 9
-30 6 0 7 -5 3 -11 -9 -15 17 -60 30 -52 6 4 5 -1 -3 -10 -8 -10 -11 -28 -8
-44 4 -16 4 -22 1 -15 -8 17 -25 15 -18 -2 3 -8 0 -24 -6 -36 -12 -22 -5 -43
8 -25 4 6 16 11 27 12 19 1 19 1 2 -12 -24 -17 -24 -19 -8 -38 12 -15 11 -17
-5 -18 -18 0 -18 -1 1 -9 18 -8 18 -9 -5 -10 l-25 -2 28 -11 c26 -10 38 -37
16 -37 -6 0 -17 -6 -24 -14 -12 -11 -12 -16 -1 -25 9 -8 16 -7 25 2 7 7 6 0
-3 -17 -8 -16 -13 -33 -10 -38 3 -4 -3 -8 -13 -9 -14 0 -14 -2 5 -9 12 -5 22
-15 22 -22 0 -7 3 -23 6 -35 5 -17 2 -23 -10 -23 -9 0 -16 -7 -16 -16 0 -8 4
-13 9 -9 5 3 13 1 16 -5 4 -6 1 -9 -6 -8 -6 2 -14 -3 -17 -11 -3 -10 0 -12 14
-8 18 7 18 6 0 -8 -18 -14 -18 -15 -2 -15 10 0 16 -5 13 -12 -2 -7 -9 -12 -14
-11 -5 1 -10 -9 -11 -22 -1 -19 2 -23 16 -18 15 6 15 5 2 -11 -12 -16 -11 -20
10 -37 14 -11 18 -17 9 -14 -12 5 -18 -1 -21 -19 -3 -14 -1 -26 3 -26 5 0 9 5
9 11 0 5 5 7 11 3 8 -5 8 -8 0 -14 -7 -3 -9 -15 -5 -26 7 -19 6 -19 -8 0 -15
19 -15 18 -14 -11 0 -17 5 -29 10 -25 5 3 6 -8 3 -26 -4 -17 -2 -34 4 -38 6
-4 5 -11 -3 -22 -11 -13 -10 -15 5 -9 9 3 17 2 17 -3 0 -6 -5 -10 -11 -10 -5
0 -7 -5 -4 -10 3 -6 -1 -13 -9 -16 -9 -3 -16 -11 -16 -16 0 -6 7 -4 16 3 14
11 16 10 12 -11 -2 -19 1 -25 15 -24 23 2 22 -3 -4 -17 -17 -9 -20 -8 -14 2 5
7 4 10 -3 6 -5 -4 -8 -16 -5 -27 3 -11 9 -17 14 -15 8 6 6 -18 -6 -47 -5 -12
-2 -18 6 -18 10 0 10 -3 1 -12 -13 -13 -16 -39 -4 -37 19 3 33 -2 28 -10 -4
-5 0 -12 6 -15 7 -3 6 -4 -4 -3 -9 1 -17 -1 -17 -5 -2 -23 0 -28 14 -28 8 0
15 -4 15 -9 0 -4 -12 -7 -27 -5 l-28 3 25 -19 c17 -14 20 -20 10 -20 -9 0 -16
-9 -16 -20 0 -11 4 -20 9 -20 5 0 6 -12 2 -27 -5 -23 -4 -25 9 -14 13 11 13 9
3 -18 -6 -16 -15 -28 -19 -25 -4 3 -8 0 -8 -5 0 -14 17 -14 25 -1 4 6 11 8 16
4 14 -8 1 -24 -21 -24 -16 0 -17 -3 -7 -25 7 -15 18 -23 26 -20 11 5 12 3 1
-10 -10 -12 -10 -18 1 -32 11 -15 10 -14 -9 1 -12 11 -22 14 -22 8 0 -6 -3
-19 -7 -29 -6 -15 -4 -16 8 -6 9 8 20 9 29 3 10 -7 11 -10 3 -10 -7 0 -13 -9
-13 -20 0 -11 6 -20 13 -20 7 0 5 -4 -4 -10 -12 -7 -17 -23 -16 -54 0 -25 4
-43 8 -41 4 3 12 -2 19 -10 11 -14 7 -19 -12 -16 -11 2 -10 -27 2 -49 5 -10 7
-26 3 -36 -6 -16 -7 -16 -15 2 -8 18 -8 18 -5 -1 2 -11 9 -19 18 -18 11 2 14
-6 11 -38 -3 -32 -1 -40 8 -34 9 6 11 4 5 -5 -4 -7 -2 -16 6 -21 12 -7 12 -9
0 -9 -11 0 -9 -4 5 -15 18 -14 18 -14 -3 -8 -13 3 -23 11 -23 19 0 8 -6 11
-17 7 -11 -4 -12 -8 -5 -11 7 -2 12 -12 12 -23 0 -10 5 -19 10 -19 16 0 12
-22 -7 -36 -17 -13 -17 -14 2 -8 20 6 20 5 1 -10 -11 -9 -18 -16 -15 -17 42
-7 67 -19 40 -19 -8 0 -10 -7 -6 -22 6 -16 4 -20 -8 -15 -12 4 -13 -1 -7 -26
4 -18 6 -40 4 -50 -1 -9 4 -17 12 -17 8 0 11 -6 8 -15 -4 -8 1 -17 9 -21 9 -3
13 -12 10 -20 -3 -8 -8 -12 -12 -10 -4 3 -12 -4 -19 -15 -10 -15 -10 -19 0
-19 10 0 10 -2 0 -9 -11 -7 -11 -9 2 -14 9 -4 16 -1 17 6 1 14 17 -22 18 -40
1 -7 -4 -13 -10 -13 -6 0 -9 6 -6 14 4 10 0 12 -14 9 -19 -5 -19 -6 -1 -22 10
-9 16 -24 14 -35 -3 -13 0 -16 10 -10 7 4 5 -2 -5 -13 -16 -18 -16 -23 -4 -34
11 -11 12 -19 4 -37 -7 -16 -7 -26 1 -34 8 -8 8 -17 1 -30 -7 -13 -6 -18 4
-18 10 0 13 -8 9 -25 -2 -14 -8 -22 -13 -19 -5 3 -9 0 -9 -5 0 -6 5 -11 11
-11 6 0 9 -17 7 -42 -2 -32 1 -42 10 -40 8 1 11 -2 7 -7 -3 -6 -11 -8 -19 -5
-9 3 -13 -5 -13 -26 0 -20 3 -26 9 -18 6 10 8 10 8 1 0 -7 7 -13 15 -13 12 0
13 -3 3 -19 -7 -11 -15 -18 -19 -15 -9 5 -3 -85 5 -94 4 -3 12 2 19 12 12 16
13 16 14 -3 1 -13 -4 -21 -13 -21 -8 0 -12 -4 -9 -10 3 -5 -2 -10 -12 -11 -10
0 -13 -3 -5 -6 6 -2 12 -11 12 -19 0 -9 -4 -12 -10 -9 -18 11 -10 -7 10 -25
19 -16 19 -19 5 -33 -21 -22 -19 -40 5 -34 11 3 20 1 20 -4 0 -5 -5 -9 -11 -9
-6 0 -9 -6 -6 -14 3 -7 0 -19 -6 -25 -8 -8 -8 -11 1 -11 6 0 16 -9 22 -20 6
-11 7 -20 3 -19 -23 4 -31 -3 -28 -23 5 -40 16 -57 33 -51 14 4 14 3 3 -5 -8
-6 -21 -8 -30 -5 -13 4 -13 3 -2 -5 9 -7 12 -20 8 -40 -5 -24 -2 -31 16 -40
12 -6 18 -11 12 -11 -13 -1 -13 -91 -1 -110 6 -10 5 -16 -2 -19 -7 -2 -12 -11
-12 -19 0 -9 6 -13 15 -10 8 4 17 2 20 -3 4 -6 -1 -10 -10 -10 -9 0 -14 -4
-10 -9 3 -5 1 -12 -5 -16 -5 -3 -10 -13 -10 -21 0 -8 4 -12 10 -9 5 3 10 1 10
-4 0 -6 -5 -11 -12 -11 -9 0 -9 -3 0 -12 14 -14 16 -32 4 -24 -5 3 -4 -10 2
-29 6 -19 18 -35 26 -36 9 0 5 -4 -7 -9 -13 -5 -23 -16 -23 -24 0 -8 -3 -22
-7 -32 -4 -12 -3 -15 5 -10 7 4 12 16 12 28 0 17 2 18 15 8 14 -11 14 -15 -2
-32 -14 -16 -15 -23 -5 -39 11 -17 9 -21 -10 -29 -13 -5 -18 -9 -12 -9 7 -1
15 -8 18 -17 3 -8 2 -12 -4 -9 -12 8 -12 3 0 -29 7 -18 14 -24 27 -20 17 5 17
5 1 -9 -10 -8 -15 -17 -11 -20 3 -4 1 -7 -5 -7 -7 0 -12 -7 -12 -16 0 -9 5
-12 13 -8 9 6 9 5 0 -8 -7 -8 -9 -18 -5 -22 10 -11 9 -30 -3 -39 -5 -4 4 -5
22 -2 26 4 31 2 27 -10 -4 -8 -11 -15 -18 -15 -6 -1 0 -7 13 -14 14 -8 19 -16
13 -20 -6 -3 -13 0 -15 6 -4 10 -6 10 -6 1 -1 -7 -8 -10 -18 -6 -11 4 -14 3
-9 -6 5 -7 14 -10 22 -7 7 3 16 1 19 -4 4 -6 -2 -10 -12 -10 -12 0 -14 -3 -6
-8 6 -4 15 -20 18 -35 5 -18 12 -26 21 -23 8 3 14 -1 14 -9 0 -8 4 -15 8 -15
5 0 24 -13 42 -30 18 -16 42 -30 52 -30 25 0 29 -1 58 -12 14 -6 36 -12 50
-14 14 -2 59 -9 100 -15 68 -10 259 -8 658 7 56 2 82 0 80 -8 -3 -9 -44 -33
-99 -59 -34 -15 -300 -68 -434 -85 -215 -28 -698 -26 -891 4 -152 24 -243 49
-314 88 l-45 25 39 -39 c55 -57 121 -90 249 -122 150 -38 233 -48 470 -59 235
-11 583 1 832 29 93 11 171 18 173 16 4 -5 10 -384 12 -756 l2 -265 28 -62
c37 -79 54 -174 47 -274 -2 -44 -7 -82 -9 -85 -3 -2 -28 1 -57 8 -83 19 -967
-15 -1112 -43 -76 -15 -129 -47 -157 -94 -22 -39 -23 -44 -17 -235 14 -458 49
-545 242 -607 117 -37 223 -46 458 -40 173 5 232 10 334 32 141 29 249 71 303
115 70 58 118 189 139 378 22 203 -2 332 -77 422 l-25 29 -6 754 -6 754 94 23
c256 62 403 147 445 255 20 54 10 89 -45 164 l-38 51 -7 452 c-43 2936 -83
4600 -151 6318 -41 1045 -84 2682 -71 2716 5 12 0 12 -32 -2 -139 -58 -270
-105 -335 -118 -94 -20 -108 -20 -83 -1 32 24 9 17 -32 -9 -20 -14 -57 -30
-82 -37 -60 -17 -288 -18 -317 -2 -17 11 -28 10 -60 -4 -56 -24 -171 -22 -258
4 -165 51 -273 154 -283 268 -2 30 -8 55 -11 55 -4 0 -47 -9 -96 -19 -50 -10
-152 -22 -228 -25 -122 -5 -144 -4 -195 14 -80 28 -142 93 -197 205 -46 95
-72 208 -96 430 -6 55 -19 168 -29 250 -11 83 -27 220 -35 305 -9 85 -27 252
-40 370 -14 118 -27 247 -30 285 -9 106 -66 618 -70 633 -7 19 -22 14 -51 -15z
m-144 -474 c0 -4 -7 -6 -15 -3 -8 4 -15 10 -15 15 0 4 7 6 15 3 8 -4 15 -10
15 -15z m80 -200 c0 -6 -4 -7 -10 -4 -5 3 -10 11 -10 16 0 6 5 7 10 4 6 -3 10
-11 10 -16z m100 -269 c0 -5 -7 -10 -15 -10 -8 0 -15 5 -15 10 0 6 7 10 15 10
8 0 15 -4 15 -10z m115 -510 c3 -5 2 -10 -4 -10 -5 0 -13 5 -16 10 -3 6 -2 10
4 10 5 0 13 -4 16 -10z m45 -250 c-18 -12 -30 -13 -30 -2 0 4 10 9 22 9 18 2
20 0 8 -7z m10 -61 c0 -6 -4 -7 -10 -4 -5 3 -10 11 -10 16 0 6 5 7 10 4 6 -3
10 -11 10 -16z m90 -379 c0 -5 -10 -10 -22 -10 -19 0 -20 2 -8 10 19 13 30 13
30 0z m-18 -48 c-14 -2 -20 -8 -16 -15 4 -7 3 -8 -1 -4 -20 18 -13 34 14 28
25 -5 25 -6 3 -9z m54 -219 c-7 -7 -26 7 -26 19 0 6 6 6 15 -2 9 -7 13 -15 11
-17z m-26 -13 c0 -5 -4 -10 -10 -10 -5 0 -10 5 -10 10 0 6 5 10 10 10 6 0 10
-4 10 -10z m20 -44 c0 -8 -7 -16 -15 -20 -15 -5 -21 14 -8 27 11 12 23 8 23
-7z m51 -209 c-10 -9 -11 -8 -5 6 3 10 9 15 12 12 3 -3 0 -11 -7 -18z m69
-341 c0 -11 -19 -15 -25 -6 -3 5 1 10 9 10 9 0 16 -2 16 -4z m54 -469 c36 -3
33 -17 -4 -17 -16 0 -30 2 -30 4 0 2 -3 13 -6 23 -4 13 -3 15 4 5 5 -8 21 -15
36 -15z m34 -354 c-13 -12 -15 -12 -15 4 0 10 5 24 11 32 9 12 12 11 14 -4 2
-9 -3 -24 -10 -32z m59 -229 c-3 -3 -12 -4 -19 -1 -8 3 -5 6 6 6 11 1 17 -2
13 -5z m50 -310 c-3 -3 -12 -4 -19 -1 -8 3 -5 6 6 6 11 1 17 -2 13 -5z m63
-409 c0 -8 -4 -15 -10 -15 -5 0 -7 7 -4 15 4 8 8 15 10 15 2 0 4 -7 4 -15z
m14 -192 c-5 -5 -12 -12 -16 -18 -4 -6 -8 -2 -8 8 0 9 7 17 17 17 9 0 12 -3 7
-7z m103 -635 c-1 -10 -2 -18 -2 -18 0 0 -8 9 -17 19 -16 18 -15 20 2 18 11
-1 18 -8 17 -19z m28 -778 c-3 -5 -11 -10 -16 -10 -6 0 -7 5 -4 10 3 6 11 10
16 10 6 0 7 -4 4 -10z m25 -290 c0 -5 -2 -10 -4 -10 -3 0 -8 5 -11 10 -3 6 -1
10 4 10 6 0 11 -4 11 -10z m1 -43 c-10 -9 -11 -8 -5 6 3 10 9 15 12 12 3 -3 0
-11 -7 -18z m9 -287 c0 -5 -4 -10 -10 -10 -5 0 -10 5 -10 10 0 6 5 10 10 10 6
0 10 -4 10 -10z m0 -70 c0 -5 -4 -10 -10 -10 -5 0 -10 5 -10 10 0 6 5 10 10
10 6 0 10 -4 10 -10z m35 -750 c3 -6 -1 -7 -9 -4 -18 7 -21 14 -7 14 6 0 13
-4 16 -10z m-5 -210 c0 -5 -4 -10 -10 -10 -5 0 -10 5 -10 10 0 6 5 10 10 10 6
0 10 -4 10 -10z m45 -480 c3 -5 1 -10 -4 -10 -6 0 -11 5 -11 10 0 6 2 10 4 10
3 0 8 -4 11 -10z m0 -410 c3 -5 1 -10 -4 -10 -6 0 -11 5 -11 10 0 6 2 10 4 10
3 0 8 -4 11 -10z m45 -424 c0 -11 -19 -15 -25 -6 -3 5 1 10 9 10 9 0 16 -2 16
-4z m-7 -363 c-5 -13 -2 -15 13 -9 14 5 16 4 7 -5 -15 -15 -32 -4 -30 21 1 10
5 17 9 14 4 -3 4 -12 1 -21z m99 -1295 c-8 -8 -9 -15 -1 -25 7 -8 8 -13 1 -13
-15 0 -22 26 -9 39 6 6 13 11 16 11 3 0 0 -5 -7 -12z m18 -172 c0 -2 -7 -7
-16 -10 -8 -3 -12 -2 -9 4 6 10 25 14 25 6z m35 -666 c3 -5 1 -10 -4 -10 -6 0
-11 5 -11 10 0 6 2 10 4 10 3 0 8 -4 11 -10z m350 -2429 c48 -7 46 -7 -48 -15
-100 -8 -210 0 -187 14 16 10 170 11 235 1z m743 -21 c23 -9 31 -17 28 -29 -3
-9 -10 -43 -16 -76 -16 -79 -33 -110 -75 -138 -19 -12 -37 -30 -40 -39 -9 -27
-147 -163 -185 -183 -19 -10 -39 -24 -45 -31 -18 -24 -127 -45 -260 -51 -107
-4 -152 -2 -253 16 -68 12 -138 28 -155 35 l-32 14 30 1 29 1 -40 43 c-45 47
-107 132 -118 162 -5 11 -16 64 -26 117 -13 74 -15 100 -6 107 26 21 115 30
456 45 195 9 387 18 425 20 110 5 247 -2 283 -14z"/>
<path d="M4390 15361 c0 -6 5 -13 10 -16 6 -3 10 1 10 9 0 9 -4 16 -10 16 -5
0 -10 -4 -10 -9z"/>
<path d="M8580 14905 c-40 -30 -77 -55 -81 -55 -13 0 -205 -195 -269 -274 -36
-44 -83 -100 -106 -125 -23 -25 -47 -56 -53 -69 -27 -52 38 5 162 139 69 75
168 170 219 211 103 83 168 150 192 197 9 17 15 31 13 31 -2 0 -37 -25 -77
-55z"/>
<path d="M6595 14650 c-3 -5 -1 -10 4 -10 6 0 11 5 11 10 0 6 -2 10 -4 10 -3
0 -8 -4 -11 -10z"/>
<path d="M6590 14600 c0 -5 5 -10 10 -10 6 0 10 5 10 10 0 6 -4 10 -10 10 -5
0 -10 -4 -10 -10z"/>
<path d="M8877 14168 c-38 -44 -109 -138 -181 -238 -74 -102 -132 -162 -216
-224 -84 -62 -86 -65 -20 -28 93 52 197 142 296 254 52 59 111 119 131 134 54
40 63 53 63 96 0 33 -3 38 -23 38 -13 0 -34 -14 -50 -32z"/>
<path d="M6690 13946 c0 -2 7 -7 16 -10 8 -3 12 -2 9 4 -6 10 -25 14 -25 6z"/>
<path d="M6710 13900 c0 -7 6 -10 14 -7 9 4 17 -1 20 -11 3 -12 4 -12 3 3 -2
21 -37 35 -37 15z"/>
<path d="M7958 13903 c7 -3 16 -2 19 1 4 3 -2 6 -13 5 -11 0 -14 -3 -6 -6z"/>
<path d="M7918 13893 c7 -3 16 -2 19 1 4 3 -2 6 -13 5 -11 0 -14 -3 -6 -6z"/>
<path d="M6740 13716 c0 -8 4 -17 9 -20 5 -4 7 3 4 14 -6 23 -13 26 -13 6z"/>
<path d="M8325 13613 c-16 -8 -41 -26 -55 -38 -14 -13 -41 -32 -60 -44 -19
-11 -30 -21 -24 -21 16 0 126 68 154 96 28 28 26 29 -15 7z"/>
<path d="M6774 13460 c0 -11 3 -20 7 -20 10 0 19 27 12 34 -12 11 -19 6 -19
-14z"/>
<path d="M4480 13239 c0 -5 5 -7 10 -4 6 3 10 8 10 11 0 2 -4 4 -10 4 -5 0
-10 -5 -10 -11z"/>
<path d="M4501 12724 c0 -11 3 -14 6 -6 3 7 2 16 -1 19 -3 4 -6 -2 -5 -13z"/>
<path d="M6938 12635 c-4 -20 -1 -25 14 -25 16 0 17 3 7 23 -16 31 -16 31 -21
2z"/>
<path d="M7010 12210 c0 -5 7 -10 16 -10 8 0 12 5 9 10 -3 6 -10 10 -16 10 -5
0 -9 -4 -9 -10z"/>
<path d="M4526 12063 c-6 -14 -5 -15 5 -6 7 7 10 15 7 18 -3 3 -9 -2 -12 -12z"/>
<path d="M7115 11500 c3 -5 11 -10 16 -10 6 0 7 5 4 10 -3 6 -11 10 -16 10 -6
0 -7 -4 -4 -10z"/>
<path d="M7150 11184 c0 -8 5 -12 10 -9 6 3 10 10 10 16 0 5 -4 9 -10 9 -5 0
-10 -7 -10 -16z"/>
<path d="M4570 11001 c0 -6 4 -13 10 -16 6 -3 7 1 4 9 -7 18 -14 21 -14 7z"/>
<path d="M7256 10502 c-3 -5 1 -9 9 -9 8 0 12 4 9 9 -3 4 -7 8 -9 8 -2 0 -6
-4 -9 -8z"/>
<path d="M4557 9979 c7 -7 15 -10 18 -7 3 3 -2 9 -12 12 -14 6 -15 5 -6 -5z"/>
<path d="M7299 9926 c9 -11 9 -15 -1 -18 -8 -3 -6 -7 5 -11 12 -5 17 -1 17 12
0 10 -7 22 -16 25 -14 5 -15 4 -5 -8z"/>
<path d="M7290 9326 c0 -2 7 -7 16 -10 8 -3 12 -2 9 4 -6 10 -25 14 -25 6z"/>
<path d="M7322 8950 c0 -14 2 -19 5 -12 2 6 2 18 0 25 -3 6 -5 1 -5 -13z"/>
<path d="M7325 8550 c-3 -5 -1 -10 4 -10 6 0 11 5 11 10 0 6 -2 10 -4 10 -3 0
-8 -4 -11 -10z"/>
<path d="M7356 8111 c-4 -6 -3 -18 2 -27 8 -14 10 -14 15 -2 7 19 -8 44 -17
29z"/>
<path d="M4538 8043 c7 -3 16 -2 19 1 4 3 -2 6 -13 5 -11 0 -14 -3 -6 -6z"/>
<path d="M7370 7686 c0 -2 7 -6 15 -10 8 -3 15 -1 15 4 0 6 -7 10 -15 10 -8 0
-15 -2 -15 -4z"/>
<path d="M7485 5630 c-3 -5 1 -10 10 -10 9 0 13 5 10 10 -3 6 -8 10 -10 10 -2
0 -7 -4 -10 -10z"/>
<path d="M4545 5400 c-3 -5 1 -10 10 -10 9 0 13 5 10 10 -3 6 -8 10 -10 10 -2
0 -7 -4 -10 -10z"/>
</g>
</svg>
